<?xml version="1.0" standalone="no"?>
<!DOCTYPE svg PUBLIC "-//W3C//DTD SVG 20010904//EN"
 "http://www.w3.org/TR/2001/REC-SVG-20010904/DTD/svg10.dtd">
<svg version="1.0" xmlns="http://www.w3.org/2000/svg"
 width="512.000000pt" height="512.000000pt" viewBox="0 0 512.000000 512.000000"
 preserveAspectRatio="xMidYMid meet">
<metadata>
Created by potrace 1.14, written by Peter Selinger 2001-2017
</metadata>
<g transform="translate(0.000000,512.000000) scale(0.100000,-0.100000)"
fill="#000000" stroke="none">
<path d="M2281 5104 c-134 -35 -248 -133 -308 -261 -33 -72 -37 -87 -41 -190
-4 -110 -5 -112 -31 -121 -95 -36 -165 -64 -224 -91 l-69 -32 -71 67 c-48 46
-94 78 -146 102 -72 34 -82 36 -181 36 -124 1 -139 -2 -226 -45 -55 -27 -97
-63 -229 -195 -214 -213 -254 -284 -253 -450 0 -84 17 -152 53 -224 24 -46 36
-61 112 -141 l45 -46 -34 -74 c-30 -65 -51 -116 -90 -221 -10 -28 -12 -28 -97
-28 -129 0 -221 -29 -310 -100 -64 -51 -121 -128 -152 -205 -22 -56 -23 -74
-26 -300 -1 -139 2 -259 8 -285 26 -116 103 -228 201 -293 79 -51 140 -69 262
-76 l108 -6 15 -45 c17 -55 45 -124 85 -208 l29 -63 -63 -68 c-35 -38 -76 -91
-90 -118 -78 -142 -76 -322 4 -461 45 -79 339 -369 409 -403 99 -49 114 -52
211 -55 147 -5 240 33 363 147 l64 60 73 -34 c61 -28 186 -77 236 -93 8 -2 12
-30 12 -91 0 -150 43 -257 139 -353 54 -55 150 -111 216 -127 17 -4 136 -8
265 -10 205 -2 243 0 295 16 219 66 345 239 345 471 l0 87 88 33 c48 18 120
48 160 67 l73 34 68 -63 c38 -35 91 -76 118 -90 141 -77 322 -76 460 3 55 31
301 268 370 356 62 80 85 149 87 263 0 52 -2 110 -6 129 -13 64 -68 159 -133
229 l-66 71 34 73 c19 40 49 112 67 160 l33 88 86 0 c47 0 109 6 138 14 148
39 264 144 323 291 23 56 24 74 27 295 2 143 -1 255 -7 287 -34 163 -169 308
-335 358 -23 6 -84 13 -136 14 -51 1 -95 4 -97 6 -2 1 -18 43 -36 91 -19 49
-48 120 -65 157 l-31 69 66 71 c124 134 166 270 134 437 -21 111 -62 171 -236
345 -213 213 -283 253 -448 253 -139 0 -230 -38 -343 -142 l-72 -67 -73 34
c-64 29 -115 50 -220 89 -28 10 -28 12 -28 97 0 47 -6 109 -14 136 -44 165
-175 296 -339 339 -74 20 -481 20 -556 0z m522 -307 c22 -12 50 -40 63 -64 24
-39 25 -50 25 -190 -1 -135 1 -151 22 -187 25 -44 66 -69 151 -91 82 -21 263
-97 348 -146 82 -46 144 -57 191 -32 16 8 70 55 121 105 104 104 138 128 182
128 80 0 95 -9 242 -154 78 -77 148 -152 155 -166 19 -38 21 -114 3 -148 -8
-16 -55 -70 -104 -118 -152 -152 -159 -177 -87 -311 62 -115 104 -217 145
-344 57 -179 68 -186 280 -188 175 -2 218 -17 257 -90 22 -42 23 -55 23 -230
0 -200 -7 -244 -44 -284 -47 -50 -74 -57 -228 -57 -212 0 -236 -16 -289 -190
-30 -97 -86 -232 -143 -343 -71 -137 -65 -159 86 -311 95 -95 118 -132 118
-190 0 -62 -19 -89 -158 -230 -136 -137 -176 -166 -229 -166 -67 0 -100 20
-202 121 -100 99 -146 129 -197 129 -15 0 -68 -22 -118 -48 -129 -69 -284
-131 -404 -162 -51 -13 -107 -68 -116 -112 -3 -17 -6 -90 -6 -162 0 -161 -16
-205 -89 -243 -42 -22 -55 -23 -239 -23 -178 0 -200 2 -239 21 -29 14 -52 35
-68 63 -23 40 -25 52 -25 172 0 168 -6 196 -44 236 -25 26 -56 41 -142 67
-122 38 -193 68 -336 141 -53 28 -108 50 -123 50 -50 0 -95 -29 -192 -126
-102 -101 -139 -124 -198 -124 -62 0 -97 24 -237 166 -139 142 -158 169 -158
230 0 58 23 95 122 194 155 155 156 163 59 356 -39 77 -90 201 -115 278 -25
76 -51 146 -58 154 -32 38 -87 50 -236 51 -165 2 -199 13 -242 77 -24 36 -25
43 -28 241 -3 191 -2 207 18 248 38 78 69 89 255 95 220 7 238 19 286 190 28
104 136 351 158 365 5 2 14 25 21 50 21 74 4 110 -102 217 -113 115 -138 150
-138 197 0 80 14 101 162 248 146 144 173 163 234 163 58 0 95 -23 196 -123
53 -53 110 -102 125 -111 40 -20 112 -13 159 16 89 56 216 110 389 165 151 48
165 73 165 285 0 132 2 144 25 183 16 28 39 50 67 64 40 20 58 21 243 20 185
0 203 -2 238 -22z"/>
<path d="M2517 3674 c-1 -1 -33 -4 -72 -8 -361 -30 -710 -270 -879 -604 -28
-55 -88 -212 -82 -212 2 0 -2 -21 -10 -46 -31 -104 -35 -292 -9 -444 18 -107
56 -216 112 -319 59 -111 110 -179 203 -272 433 -434 1135 -429 1570 10 172
174 285 401 315 636 8 66 8 227 0 290 -23 165 -88 336 -182 477 -62 94 -208
240 -298 299 -162 106 -327 167 -500 185 -61 6 -164 11 -168 8z m143 -307
c167 -17 352 -108 476 -235 157 -160 235 -351 235 -572 1 -125 -20 -225 -70
-333 -147 -325 -486 -516 -841 -474 -357 42 -656 335 -706 692 -18 126 4 301
53 423 70 173 223 337 398 424 73 37 186 68 273 76 76 8 92 7 182 -1z"/>
</g>
</svg>
